<svg xmlns="http://www.w3.org/2000/svg" xmlns:xlink="http://www.w3.org/1999/xlink" width="380" height="395" viewBox="0 0 380 395">
    <defs>
        <linearGradient id="a" x1="24.339%" x2="79.076%" y1="-13.529%" y2="96.977%">
            <stop offset="0%" stop-color="#0CB9D8" stop-opacity=".4"/>
            <stop offset="100%" stop-color="#1BBAF2" stop-opacity="0"/>
        </linearGradient>
        <path id="c" d="M105.319 178.6V4.95c0-3.66 2.226-5.343 4.97-3.758l185.914 107.337c2.745 1.585 4.97 5.838 4.97 9.498v173.652c0 3.66-2.225 5.343-4.97 3.758L110.29 188.099c-2.745-1.585-4.971-5.838-4.971-9.498"/>
        <filter id="b" width="186.8%" height="157.5%" x="-33.2%" y="-28.8%" filterUnits="objectBoundingBox">
            <feOffset dx="20" in="SourceAlpha" result="shadowOffsetOuter1"/>
            <feGaussianBlur in="shadowOffsetOuter1" result="shadowBlurOuter1" stdDeviation="25"/>
            <feColorMatrix in="shadowBlurOuter1" values="0 0 0 0 0 0 0 0 0 0 0 0 0 0 0 0 0 0 0.1 0"/>
        </filter>
    </defs>
    <g fill="none" fill-rule="evenodd">
        <path fill="url(#a)" fill-opacity=".4" d="M190 380c75.577 0 116.9-51.26 147.506-115.156C349.394 240.024 380 195.578 380 166.22c0-57.842-42.661-69.054-83.436-103.903C263.368 33.946 237.092 0 190 0c-48.636 0-76.19 35.089-109.798 65.146C41.299 99.937 0 133.702 0 190c0 48.288 34.828 75.555 64.502 109.075C99.312 338.397 133.354 380 190 380z" transform="translate(0 15)"/>
        <path fill="#298098" d="M214.355 363.81l-78.627-45.396 35.279-20.368 78.627 45.396z"/>
        <path fill="#FFF" d="M172.074 323.865l-2.658 1.535c-.544.314-1.426.32-1.97.005-.544-.314-.536-.824.008-1.138l2.658-1.534c-.384-.64-.152-1.372.713-1.872 1.222-.705 3.18-.717 4.401-.013 1.221.705 1.244 1.862.024 2.567-.865.5-2.159.618-3.176.45m9.471-7.287c1.035.313 1.594.97 1.402 1.645-.085.3-.295.57-.67.785-.696.4-1.387.787-2.08 1.18l-3.773-2.18c.657-.388 1.306-.773 1.98-1.156.86-.488 2.103-.589 3.141-.274m1.506 5.272l1.87-1.068c1.533-.877 2.242-1.932 2.065-3.176-.102-.727-.58-1.369-1.344-1.953a3.86 3.86 0 0 0-.426-.278l-.447-.258a3.804 3.804 0 0 0-.456-.229c-2.265-.936-4.648-1.049-7.149-.36a7.279 7.279 0 0 0-1.782.772l-1.824 1.065c-1.37-.732-3.503-.719-4.834.05l-7.858 4.536c-1.363.788-1.363 2.065 0 2.852l9.26 5.346c1.364.788 3.575.788 4.94.001l7.858-4.538c1.315-.759 1.35-1.97.127-2.762"/>
        <path fill="#0E506C" d="M214.355 367.084v-3.273l-78.617-45.39v3.273z"/>
        <path fill="#0E506C" d="M249.634 346.715v-3.274l-35.28 20.37v3.272z"/>
        <g>
            <g transform="translate(6 44.398)">
                <use fill="#000" filter="url(#b)" xlink:href="#c"/>
                <use fill="#C0F1FE" xlink:href="#c"/>
            </g>
            <path stroke="#77AEC8" d="M242.734 297.393V126.698l59.175 34.164v170.695zM296.7 184.662L248 156.545"/>
            <path fill="#77AEC8" d="M248 148.439v-10.595l48.644 28.085v10.594z"/>
            <path stroke="#77AEC8" d="M296.7 192.44L248 164.323M296.7 200.218L248 172.101M296.7 207.996L248 179.879M296.7 215.774L248 187.657M296.7 223.552L248 195.435M296.7 231.33L248 203.214"/>
            <path fill="#77AEC8" d="M248 292.327V218.67l48.644 28.085v73.655z"/>
            <path stroke="#77AEC8" d="M136.455 236.033V65.338l101.015 58.32v170.695z"/>
            <path fill="#77AEC8" d="M140.855 190.625v-64.172l92.215 53.24v64.172zM177.026 232.035l55.178 31.857v-12.315l-55.178-31.856zM177.026 250.963l55.178 31.857v-12.315l-55.178-31.856zM155.46 101.546c0-6.21-3.27-13.133-7.302-15.46-4.033-2.33-7.303.816-7.303 7.026s3.27 13.133 7.303 15.46c4.033 2.33 7.303-.818 7.303-7.027M176.37 113.617c0-6.21-3.27-13.131-7.303-15.46-4.034-2.33-7.303.817-7.303 7.027s3.27 13.132 7.303 15.46c4.033 2.329 7.303-.817 7.303-7.027M232.204 145.853c0-6.21-3.27-13.132-7.303-15.46-4.033-2.329-7.302.817-7.302 7.027s3.27 13.132 7.302 15.46c4.033 2.33 7.303-.817 7.303-7.027M124.713 101.164l-2.835-1.637-.01-40.73 2.835 1.636z"/>
            <path fill="#298098" d="M87.462 122.768L8.835 168.164v-40.737L87.462 82.03z"/>
            <path fill="#FFF" d="M22.088 132.213c0-.615.086-.764.604-1.062 1.242-.72 2.485-1.446 3.727-2.14a.489.489 0 0 1 .487.005c.183.125.31.344.458.527.272.337.646.33 1.166.028 3.138-1.828 6.285-3.637 9.422-5.448.639-.37.694-.348.694.383v.986l-.57.329c-4.505 2.6-9.01 5.187-13.516 7.789-.84.485-1.205 1.049-1.357 2.086-.336 2.309-.678 4.615-1.091 6.966-.008-.12-.024-.237-.024-.362v-10.087m17.377-7.278c0-.37-.001-.755-.006-1.14-.01-.858-.405-1.138-1.146-.814a4.804 4.804 0 0 0-.452.238c-3.075 1.775-6.151 3.544-9.227 5.336-.335.196-.558.208-.691-.051-.424-.826-1.122-.816-2.145-.125-.997.672-1.998 1.189-3.002 1.748-.671.374-1.18.909-1.48 1.817v17.4c.376.533.97.326 1.68-.088 4.755-2.767 9.505-5.5 14.259-8.244.924-.533 1.289-1.145 1.453-2.295.45-3.16.92-6.33 1.386-9.495.137-.93.285-1.868.427-2.801.01-.065.008-.12.084-.22v-.956c-.453-.456-.46-.473-1.14-.31"/>
            <path fill="#0E506C" d="M6 166.526l2.835 1.637v-40.737L6 125.79z"/>
            <path fill="#0E506C" d="M87.452 82.037L84.617 80.4 6 125.79l2.835 1.637z"/>
            <path fill="#298098" d="M124.713 164.893L46.086 210.29v-40.737l78.627-45.396z"/>
            <path fill="#FFF" d="M80.817 172.903c0 2.274-1.203 4.917-2.913 6.73-.385.488-.834.9-1.315 1.178l-14.186 8.19a2.873 2.873 0 0 1-.347.173c-2.39 1.104-4.256-.15-4.256-2.982 0-2.759 1.77-6.06 4.068-7.76.344-2.358 1.98-4.938 3.948-6.073.656-.379 1.275-.554 1.821-.548 1.045-2.093 2.64-3.967 4.43-4.999 2.686-1.552 4.937-.7 5.535 1.845.816-.357 1.45.064 1.473 1.017 1.063.388 1.742 1.52 1.742 3.23"/>
            <path fill="#0E506C" d="M43.25 208.652l2.836 1.637v-40.737l-2.835-1.637z"/>
            <path fill="#0E506C" d="M124.703 124.162l-2.835-1.637-78.618 45.39 2.835 1.637z"/>
            <path fill="#298098" d="M124.713 228.622l-78.627 45.396V233.28l78.627-45.395z"/>
            <path fill="#FFF" d="M68.387 243.103l-10.65-2.915v14.431l21.254-12.272v-14.392z"/>
            <path fill="#FFF" d="M57.782 239.199l10.053 2.786c.31.086.79-.19 1.1-.634l10.056-14.364-21.209 12.212z"/>
            <path fill="#0E506C" d="M43.25 272.38l2.836 1.637V233.28l-2.835-1.636z"/>
            <path fill="#0E506C" d="M124.703 187.891l-2.835-1.638-78.618 45.391 2.835 1.637z"/>
        </g>
    </g>
</svg>
