<?xml version="1.0" encoding="utf-8"?>
<!-- Generator: Adobe Illustrator 15.1.0, SVG Export Plug-In . SVG Version: 6.00 Build 0)  -->
<!DOCTYPE svg PUBLIC "-//W3C//DTD SVG 1.1//EN" "http://www.w3.org/Graphics/SVG/1.1/DTD/svg11.dtd">
<svg version="1.1" id="Ebene_1" xmlns="http://www.w3.org/2000/svg" xmlns:xlink="http://www.w3.org/1999/xlink" x="0px" y="0px"
	 width="34px" height="30px" viewBox="0 0 34 30" enable-background="new 0 0 145 30" xml:space="preserve">
<g>
	<defs>
		<rect id="SVGID_1_" width="145" height="30"/>
	</defs>
	<clipPath id="SVGID_2_">
		<use xlink:href="#SVGID_1_"  overflow="visible"/>
	</clipPath>
	<path clip-path="url(#SVGID_2_)" fill="#1BBAF2" d="M21.652,29.852h3.026c0.482,0,0.927-0.258,1.167-0.675l7.769-13.505
		c0.239-0.416,0.239-0.927,0-1.343L25.845,0.824c-0.24-0.418-0.685-0.675-1.167-0.675h-3.026c-0.372,0-0.673,0.301-0.673,0.673
		c0,0.118,0.03,0.233,0.089,0.335l7.567,13.173c0.238,0.415,0.238,0.926,0,1.341l-7.567,13.172
		c-0.185,0.323-0.074,0.734,0.248,0.919C21.419,29.82,21.534,29.852,21.652,29.852 M16.079,29.852H9.15
		c-0.481,0-0.926-0.258-1.167-0.675L0.215,15.672c-0.239-0.416-0.239-0.927,0-1.343L7.983,0.824C8.224,0.406,8.669,0.149,9.15,0.149
		h6.929c0.241,0,0.463,0.128,0.584,0.337l1.79,3.111c0.185,0.322,0.074,0.734-0.248,0.919c-0.102,0.059-0.218,0.09-0.336,0.09
		h-6.157c-0.481,0-0.926,0.257-1.166,0.674l-5.204,9.025c-0.24,0.416-0.24,0.929,0,1.345l5.204,9.025
		c0.24,0.417,0.685,0.674,1.166,0.674h6.184c0.371,0,0.673,0.301,0.673,0.673c0,0.118-0.031,0.233-0.09,0.336l-1.816,3.156
		C16.542,29.723,16.32,29.852,16.079,29.852 M21.375,8.689l3.239,5.584c0.243,0.418,0.243,0.934,0,1.351l-3.239,5.585
		c-0.241,0.415-0.685,0.671-1.165,0.671h-6.489c-0.48,0-0.924-0.256-1.165-0.671l-3.239-5.585c-0.243-0.417-0.243-0.933,0-1.351
		l3.239-5.584c0.241-0.415,0.685-0.671,1.165-0.671h6.489C20.69,8.018,21.134,8.274,21.375,8.689"/>

</g>
</svg>
